 http://bayimg.com/CAmgPAaEN

General
Complete name                            : Snitch 2013 720p BluRay x264 SIMON
Format                                   : MPEG-4
Format profile                           : Base Media / Version 2
Codec ID                                 : mp42
File size                                : 841 MiB
Duration                                 : 1h 51mn
Overall bit rate mode                    : Variable
Overall bit rate                         : 1 051 Kbps
Encoded date                             : UTC 2013-05-21 06:01:51
Tagged date                              : UTC 2013-05-21 07:08:18
Writing application                      : HandBrake 0.9.9 2013051800

Video
ID                                       : 1
Format                                   : AVC
Format/Info                              : Advanced Video Codec
Format profile                           : High@L4.1
Format settings, CABAC                   : Yes
Format settings, ReFrames                : 5 frames
Codec ID                                 : avc1
Codec ID/Info                            : Advanced Video Coding
Duration                                 : 1h 51mn
Bit rate mode                            : Variable
Bit rate                                 : 950 Kbps
Width                                    : 1 280 pixels
Height                                   : 544 pixels
Display aspect ratio                     : 2.35:1
Frame rate mode                          : Variable
Frame rate                               : 23.976 fps
Minimum frame rate                       : 23.810 fps
Maximum frame rate                       : 24.390 fps
Color space                              : YUV
Chroma subsampling                       : 4:2:0
Bit depth                                : 8 bits
Scan type                                : Progressive
Bits/(Pixel*Frame)                       : 0.057
Stream size                              : 760 MiB (90%)
Writing library                          : x264 core 130 r2273 b3065e6
Encoded date                             : UTC 2013-05-21 06:01:51
Tagged date                              : UTC 2013-05-21 07:08:18
Color primaries                          : BT.709
Transfer characteristics                 : BT.709
Matrix coefficients                      : BT.709

Audio
ID                                       : 2
Format                                   : AAC
Format/Info                              : Advanced Audio Codec
Format profile                           : LC
Codec ID                                 : 40
Duration                                 : 1h 51mn
Bit rate mode                            : Variable
Bit rate                                 : 96.0 Kbps
Maximum bit rate                         : 138 Kbps
Channel(s)                               : 2 channels
Channel positions                        : Front: L R
Sampling rate                            : 48.0 KHz
Compression mode                         : Lossy
Delay relative to video                  : 83ms
Stream size                              : 76.8 MiB (9%)
Language                                 : English
Encoded date                             : UTC 2013-05-21 06:01:51
Tagged date                              : UTC 2013-05-21 07:08:18

